<svg width="32" height="32" viewBox="0 0 32 32" fill="none" xmlns="http://www.w3.org/2000/svg">
<rect x="4" y="4" width="24" height="24" fill="#C2BFBB"/>
<rect x="25.9995" y="29.9932" width="16" height="4" transform="rotate(180 25.9995 29.9932)" fill="#B1ADA8"/>
<rect x="25.9995" y="23.9932" width="16" height="5" transform="rotate(-90 25.9995 23.9932)" fill="#B1ADA8"/>
<rect x="21" y="21" width="7" height="7" fill="#B1ADA8"/>
<rect x="4" y="28" width="24" height="4" fill="#B1ADA8"/>
<rect x="32" y="4" width="24" height="4" transform="rotate(90 32 4)" fill="#B1ADA8"/>
<rect x="4" width="24" height="4" fill="#E0DEDB"/>
<rect x="4" y="4" width="7" height="7" fill="#E0DEDB"/>
<rect x="5.99951" y="1.99316" width="16" height="4" fill="#E0DEDB"/>
<rect x="5.99951" y="7.99316" width="16" height="5" transform="rotate(90 5.99951 7.99316)" fill="#E0DEDB"/>
<rect x="4" y="4" width="24" height="4" transform="rotate(90 4 4)" fill="#E0DEDB"/>
<rect x="10" y="12" width="4" height="4" fill="black"/>
<rect x="10" y="8" width="4" height="4" fill="black"/>
<rect x="10" y="20" width="4" height="4" fill="black"/>
<rect x="10" y="16" width="4" height="4" fill="black"/>
<rect x="18" y="12" width="4" height="4" fill="black"/>
<rect x="18" y="8" width="4" height="4" fill="black"/>
<rect x="18" y="20" width="4" height="4" fill="black"/>
<rect x="18" y="16" width="4" height="4" fill="black"/>
</svg>
