<svg width="32" height="32" viewBox="0 0 32 32" fill="none" xmlns="http://www.w3.org/2000/svg">
<rect x="4" y="4" width="24" height="24" fill="#C49D91"/>
<rect x="26" y="29.9932" width="16" height="4" transform="rotate(180 26 29.9932)" fill="#B69084"/>
<rect x="26" y="23.9932" width="16" height="5" transform="rotate(-90 26 23.9932)" fill="#B69084"/>
<rect x="21" y="21" width="7" height="7" fill="#B69084"/>
<rect x="4" y="28" width="24" height="4" fill="#B69084"/>
<rect x="32" y="4" width="24" height="4" transform="rotate(90 32 4)" fill="#B69084"/>
<rect x="4" width="24" height="4" fill="#DAB2A6"/>
<rect x="4" y="4" width="7" height="7" fill="#DAB2A6"/>
<rect x="6" y="1.99316" width="16" height="4" fill="#DAB2A6"/>
<rect x="6" y="7.99316" width="16" height="5" transform="rotate(90 6 7.99316)" fill="#DAB2A6"/>
<rect x="4" y="4" width="24" height="4" transform="rotate(90 4 4)" fill="#DAB2A6"/>
<rect x="10" y="12" width="4" height="4" fill="black"/>
<rect x="10" y="8" width="4" height="4" fill="black"/>
<rect x="10" y="20" width="4" height="4" fill="black"/>
<rect x="10" y="16" width="4" height="4" fill="black"/>
<rect x="18" y="12" width="4" height="4" fill="black"/>
<rect x="18" y="8" width="4" height="4" fill="black"/>
<rect x="18" y="20" width="4" height="4" fill="black"/>
<rect x="18" y="16" width="4" height="4" fill="black"/>
</svg>
