<svg width="256" height="39" viewBox="0 0 256 39" fill="none" xmlns="http://www.w3.org/2000/svg">
<rect x="1.52246" y="3.04492" width="251.969" height="31.9718" fill="white"/>
<rect x="3.04492" y="1.52246" width="244.356" height="35.0168" fill="white"/>
<rect x="7.6123" width="239.789" height="1.52247" fill="#E0E0E0"/>
<rect x="1.52246" y="7.6123" width="22.837" height="1.52247" transform="rotate(90 1.52246 7.6123)" fill="#E0E0E0"/>
<rect width="4.56741" height="1.52247" transform="matrix(-1 0 0 1 7.6123 1.52246)" fill="#E0E0E0"/>
<rect width="4.56741" height="1.52247" transform="matrix(4.37114e-08 1 1 -4.37114e-08 1.52246 3.04492)" fill="#E0E0E0"/>
<rect width="22.837" height="1.52247" transform="matrix(5.3425e-08 1 1 -3.57639e-08 253.491 7.6123)" fill="#E0E0E0"/>
<rect x="247.401" y="1.52246" width="4.56741" height="1.52247" fill="#E0E0E0"/>
<rect x="253.491" y="3.04492" width="4.56741" height="1.52247" transform="rotate(90 253.491 3.04492)" fill="#E0E0E0"/>
<rect x="7.6123" y="36.5391" width="239.789" height="1.52247" fill="#E0E0E0"/>
<rect width="4.56741" height="1.52247" transform="matrix(4.37114e-08 1 1 -4.37114e-08 1.52246 30.4492)" fill="#E0E0E0"/>
<rect width="4.56741" height="1.52247" transform="matrix(1 -8.74228e-08 -8.74228e-08 -1 3.04492 36.5391)" fill="#E0E0E0"/>
<rect x="253.491" y="30.4492" width="4.56741" height="1.52247" transform="rotate(90 253.491 30.4492)" fill="#E0E0E0"/>
<rect x="251.969" y="36.5391" width="4.56741" height="1.52247" transform="rotate(-180 251.969 36.5391)" fill="#E0E0E0"/>
<rect x="7.6123" y="1.52246" width="239.789" height="4.56741" fill="white"/>
<rect x="3.04492" y="3.04492" width="4.56741" height="4.56741" fill="white"/>
<rect x="1.52246" y="7.6123" width="3.04494" height="4.56741" fill="white"/>
<rect width="4.56741" height="4.56741" transform="matrix(-1 0 0 1 251.969 3.04492)" fill="white"/>
<rect width="3.04494" height="4.56741" transform="matrix(-1 0 0 1 253.491 7.6123)" fill="white"/>
<rect width="239.789" height="4.56741" transform="matrix(1 0 0 -1 7.6123 36.5391)" fill="white"/>
<rect width="4.56741" height="4.56741" transform="matrix(1 0 0 -1 3.04492 35.0166)" fill="white"/>
<rect width="3.04494" height="4.56741" transform="matrix(1 0 0 -1 1.52246 30.4492)" fill="white"/>
<rect x="251.969" y="35.0166" width="4.56741" height="4.56741" transform="rotate(-180 251.969 35.0166)" fill="white"/>
<rect x="253.491" y="30.4492" width="3.04494" height="4.56741" transform="rotate(-180 253.491 30.4492)" fill="white"/>
</svg>
